<svg width="80" height="80" viewBox="0 0 80 80" fill="none" xmlns="http://www.w3.org/2000/svg">
<g clip-path="url(#clip0_4_14)">
<path d="M26.8885 40.1553C26.8938 42.7535 27.6694 45.2918 29.1174 47.4502C30.5654 49.6087 32.621 51.2905 35.0249 52.2835C37.4287 53.2765 40.0732 53.5363 42.6248 53.0301C45.1763 52.5238 47.5206 51.2743 49.3619 49.439C51.2032 47.6037 52.4591 45.2649 52.9711 42.7176C53.4832 40.1703 53.2284 37.5286 52.239 35.1257C51.2496 32.7228 49.5698 30.6664 47.4117 29.2158C45.2535 27.7653 42.7135 26.9855 40.1121 26.975C38.3792 26.9732 36.663 27.313 35.0618 27.975C33.4607 28.6369 32.006 29.6079 30.7813 30.8323C29.5566 32.0567 28.5858 33.5105 27.9247 35.1104C27.2636 36.7102 26.9251 38.4246 26.9286 40.1553" fill="#fff"/>
<path d="M4.53267 34.9803H4.69312C5.45476 34.8252 6.22906 34.7403 7.00625 34.7266C9.09261 34.719 11.1412 35.2825 12.9295 36.3558L13.4509 36.703C14.2738 30.2352 17.4302 24.2891 22.3285 19.9792C27.2267 15.6694 33.5307 13.2916 40.0587 13.2916C46.5867 13.2916 52.8906 15.6694 57.7889 19.9792C62.6872 24.2891 65.8435 30.2352 66.6664 36.703C66.8669 36.5962 67.014 36.4626 67.1878 36.3558C68.9775 35.2856 71.0252 34.7224 73.1111 34.7266C73.8867 34.7203 74.6612 34.7874 75.4242 34.9269H75.5847C77.2108 35.2233 78.7556 35.8605 80.1173 36.7965C79.2881 26.7506 74.705 17.3839 67.2787 10.5579C59.8525 3.73178 50.1267 -0.0540375 40.034 -0.0473086C29.9414 -0.0405796 20.2207 3.75821 12.8035 10.5942C5.3864 17.4301 0.815811 26.8029 0 36.8499C1.36417 35.9185 2.90798 35.2817 4.53267 34.9803Z" fill="#fff"/>
<path d="M40.1122 80.3107C30.5587 80.3225 21.3134 76.9353 14.0338 70.7562C6.75423 64.5772 1.91642 56.0105 0.387748 46.5919C0.210282 45.7863 0.202703 44.9526 0.365494 44.1438C0.528285 43.3351 0.85788 42.5691 1.3333 41.8945C1.80872 41.22 2.41955 40.6517 3.1269 40.2258C3.83426 39.7999 4.62265 39.5258 5.44188 39.4208C12.6487 38.2457 13.705 45.3099 13.705 45.3099C14.9026 51.4137 18.1866 56.9122 22.995 60.8649C27.8035 64.8175 33.8377 66.9787 40.0654 66.9787C46.293 66.9787 52.3272 64.8175 57.1357 60.8649C61.9441 56.9122 65.2281 51.4137 66.4257 45.3099C66.4257 45.3099 67.482 38.2457 74.6888 39.4208C75.5081 39.5258 76.2965 39.7999 77.0038 40.2258C77.7112 40.6517 78.322 41.22 78.7974 41.8945C79.2728 42.5691 79.6024 43.3351 79.7652 44.1438C79.928 44.9526 79.9204 45.7863 79.743 46.5919C78.2322 56.0015 73.4123 64.5651 66.1488 70.7451C58.8853 76.925 49.654 80.3165 40.1122 80.3107Z" fill="#fff"/>
</g>
<defs>
<clipPath id="clip0_4_14">
<rect width="80" height="80" fill="white"/>
</clipPath>
</defs>
</svg>
